<svg width="28" height="29" viewBox="0 0 28 29" fill="none" xmlns="http://www.w3.org/2000/svg">
<g clip-path="url(#clip0_108_163)">
<path d="M27.727 14.8225C27.727 13.8708 27.6499 12.914 27.4853 11.9777H14.28V17.3689H21.842C21.5283 19.1076 20.52 20.6457 19.0436 21.6231V25.1212H23.5551C26.2044 22.6828 27.727 19.0819 27.727 14.8225Z" fill="#4285F4"/>
<path d="M14.28 28.5009C18.0559 28.5009 21.2402 27.2612 23.5602 25.1212L19.0487 21.6231C17.7935 22.4771 16.1731 22.9606 14.2852 22.9606C10.6328 22.9606 7.53596 20.4965 6.42481 17.1837H1.76929V20.7898C4.14592 25.5173 8.98663 28.5009 14.28 28.5009Z" fill="#34A853"/>
<path d="M6.41966 17.1837C5.83322 15.4449 5.83322 13.5621 6.41966 11.8234V8.21729H1.76928C-0.216388 12.1732 -0.216388 16.8339 1.76928 20.7898L6.41966 17.1837Z" fill="#FBBC04"/>
<path d="M14.28 6.04127C16.276 6.01041 18.2051 6.76146 19.6506 8.14012L23.6477 4.14305C21.1167 1.76642 17.7575 0.45979 14.28 0.500943C8.98663 0.500943 4.14592 3.48459 1.76929 8.21728L6.41966 11.8234C7.52567 8.50536 10.6276 6.04127 14.28 6.04127Z" fill="#EA4335"/>
</g>
<defs>
<clipPath id="clip0_108_163">
<rect width="28" height="28" fill="white" transform="translate(0 0.5)"/>
</clipPath>
</defs>
</svg>
